<svg width="295" height="78" viewBox="0 0 295 78" fill="none" xmlns="http://www.w3.org/2000/svg">
<path d="M97.6851 56V14.12H124.625V21.14H105.605V31.28H122.165V38.3H105.605V56H97.6851Z" fill="#4E4E4E"/>
<path d="M125.093 56V24.68H132.773V31.16H133.073C133.273 30.32 133.573 29.52 133.973 28.76C134.413 27.96 134.973 27.26 135.653 26.66C136.333 26.06 137.133 25.58 138.053 25.22C139.013 24.86 140.113 24.68 141.353 24.68H143.033V31.94H140.633C138.033 31.94 136.073 32.32 134.753 33.08C133.433 33.84 132.773 35.08 132.773 36.8V56H125.093Z" fill="#4E4E4E"/>
<path d="M147.388 20.12C145.788 20.12 144.628 19.76 143.908 19.04C143.228 18.32 142.888 17.4 142.888 16.28V15.08C142.888 13.96 143.228 13.04 143.908 12.32C144.628 11.6 145.788 11.24 147.388 11.24C148.948 11.24 150.088 11.6 150.808 12.32C151.528 13.04 151.888 13.96 151.888 15.08V16.28C151.888 17.4 151.528 18.32 150.808 19.04C150.088 19.76 148.948 20.12 147.388 20.12ZM143.548 24.68H151.228V56H143.548V24.68Z" fill="#4E4E4E"/>
<path d="M155.03 56V24.68H162.71V29.9H163.01C163.65 28.22 164.65 26.82 166.01 25.7C167.41 24.54 169.33 23.96 171.77 23.96C175.01 23.96 177.49 25.02 179.21 27.14C180.93 29.26 181.79 32.28 181.79 36.2V56H174.11V36.98C174.11 34.74 173.71 33.06 172.91 31.94C172.11 30.82 170.79 30.26 168.95 30.26C168.15 30.26 167.37 30.38 166.61 30.62C165.89 30.82 165.23 31.14 164.63 31.58C164.07 31.98 163.61 32.5 163.25 33.14C162.89 33.74 162.71 34.46 162.71 35.3V56H155.03Z" fill="#4E4E4E"/>
<path d="M204.644 50.78H204.343C203.783 52.58 202.723 54.02 201.163 55.1C199.603 56.18 197.783 56.72 195.703 56.72C191.743 56.72 188.703 55.3 186.583 52.46C184.503 49.62 183.463 45.56 183.463 40.28C183.463 35.04 184.503 31.02 186.583 28.22C188.703 25.38 191.743 23.96 195.703 23.96C197.783 23.96 199.603 24.5 201.163 25.58C202.723 26.62 203.783 28.04 204.343 29.84H204.644V11.6H212.323V56H204.644V50.78ZM198.163 50.36C200.003 50.36 201.544 49.92 202.784 49.04C204.024 48.16 204.644 46.9 204.644 45.26V35.3C204.644 33.78 204.024 32.56 202.784 31.64C201.544 30.72 200.003 30.26 198.163 30.26C196.163 30.26 194.543 30.94 193.303 32.3C192.103 33.62 191.503 35.4 191.503 37.64V43.04C191.503 45.28 192.103 47.06 193.303 48.38C194.543 49.7 196.163 50.36 198.163 50.36Z" fill="#4E4E4E"/>
<path d="M228.74 56.72C226.42 56.72 224.34 56.34 222.5 55.58C220.7 54.78 219.16 53.68 217.88 52.28C216.64 50.84 215.68 49.12 215 47.12C214.32 45.08 213.98 42.8 213.98 40.28C213.98 37.8 214.3 35.56 214.94 33.56C215.62 31.56 216.58 29.86 217.82 28.46C219.06 27.02 220.58 25.92 222.38 25.16C224.18 24.36 226.22 23.96 228.5 23.96C230.94 23.96 233.06 24.38 234.86 25.22C236.66 26.06 238.14 27.2 239.3 28.64C240.46 30.08 241.32 31.76 241.88 33.68C242.48 35.56 242.78 37.58 242.78 39.74V42.26H221.96V43.04C221.96 45.32 222.6 47.16 223.88 48.56C225.16 49.92 227.06 50.6 229.58 50.6C231.5 50.6 233.06 50.2 234.26 49.4C235.5 48.6 236.6 47.58 237.56 46.34L241.7 50.96C240.42 52.76 238.66 54.18 236.42 55.22C234.22 56.22 231.66 56.72 228.74 56.72ZM228.62 29.72C226.58 29.72 224.96 30.4 223.76 31.76C222.56 33.12 221.96 34.88 221.96 37.04V37.52H234.8V36.98C234.8 34.82 234.26 33.08 233.18 31.76C232.14 30.4 230.62 29.72 228.62 29.72Z" fill="#4E4E4E"/>
<path d="M252.117 56C249.477 56 247.537 55.34 246.297 54.02C245.057 52.7 244.437 50.84 244.437 48.44V11.6H252.117V49.88H256.257V56H252.117Z" fill="#4E4E4E"/>
<path d="M269.394 56.72C267.154 56.72 265.134 56.34 263.334 55.58C261.574 54.82 260.054 53.72 258.774 52.28C257.534 50.84 256.574 49.12 255.894 47.12C255.214 45.08 254.874 42.8 254.874 40.28C254.874 37.76 255.214 35.5 255.894 33.5C256.574 31.5 257.534 29.8 258.774 28.4C260.054 26.96 261.574 25.86 263.334 25.1C265.134 24.34 267.154 23.96 269.394 23.96C271.634 23.96 273.654 24.34 275.454 25.1C277.254 25.86 278.774 26.96 280.014 28.4C281.294 29.8 282.274 31.5 282.954 33.5C283.634 35.5 283.974 37.76 283.974 40.28C283.974 42.8 283.634 45.08 282.954 47.12C282.274 49.12 281.294 50.84 280.014 52.28C278.774 53.72 277.254 54.82 275.454 55.58C273.654 56.34 271.634 56.72 269.394 56.72ZM269.394 50.54C271.434 50.54 273.034 49.92 274.194 48.68C275.354 47.44 275.934 45.62 275.934 43.22V37.4C275.934 35.04 275.354 33.24 274.194 32C273.034 30.76 271.434 30.14 269.394 30.14C267.394 30.14 265.814 30.76 264.654 32C263.494 33.24 262.914 35.04 262.914 37.4V43.22C262.914 45.62 263.494 47.44 264.654 48.68C265.814 49.92 267.394 50.54 269.394 50.54Z" fill="#4E4E4E"/>
<path d="M289.245 56.66C287.605 56.66 286.385 56.26 285.585 55.46C284.825 54.62 284.445 53.56 284.445 52.28V51.2C284.445 49.92 284.825 48.86 285.585 48.02C286.385 47.18 287.605 46.76 289.245 46.76C290.925 46.76 292.145 47.18 292.905 48.02C293.665 48.86 294.045 49.92 294.045 51.2V52.28C294.045 53.56 293.665 54.62 292.905 55.46C292.145 56.26 290.925 56.66 289.245 56.66Z" fill="#4E4E4E"/>
<path d="M0 73C0 75.7614 2.23858 78 5 78H73C75.7614 78 78 75.7614 78 73V5C78 2.23858 75.7614 0 73 0H5C2.23858 0 0 2.23858 0 5V73Z" fill="url(#paint0_linear_37_24)"/>
<path d="M64.6295 28.3083C63.6165 28.3055 62.4911 28.2437 61.2535 28.1228C60.0536 27.9727 58.5538 27.7484 56.7542 27.4499L54.3507 36.2042L62.5675 36.227L61.6522 39.4823L53.4354 39.4595L48.8016 56L40.6974 55.9775L48.9352 26.5917C46.3459 26.6726 44.4664 27.4452 43.2966 28.9094C42.1644 30.3738 41.5914 32.6321 41.5775 35.6845C41.575 36.2421 41.6103 36.7265 41.6835 37.1376C41.7941 37.5488 41.9612 37.9455 42.1846 38.3276C42.2591 38.4452 42.2962 38.5334 42.2959 38.5921C42.3333 38.6215 42.3519 38.6509 42.3518 38.6803C40.2507 38.6745 38.7139 38.3327 37.7415 37.6549C36.8067 36.9479 36.3427 35.8607 36.3493 34.3932C36.3652 30.9006 38.0474 28.1317 41.396 26.0865C44.7822 24.0121 49.5144 22.9833 55.5925 23.0002C55.9302 23.0011 56.3428 23.017 56.8305 23.0477C57.3181 23.0784 58.1245 23.1393 59.2497 23.2305C60.7499 23.3521 61.8939 23.4433 62.6815 23.5042C63.5068 23.5358 64.2571 23.5526 64.9325 23.5545C65.9455 23.5573 66.8649 23.5158 67.6908 23.43C68.5166 23.3443 69.2863 23.2144 70 23.0402C69.9622 23.0988 69.7913 23.5533 69.4873 24.4036C69.1833 25.2539 68.8238 25.9279 68.4088 26.4257C67.9938 26.9235 67.4667 27.333 66.8274 27.654C66.2257 27.9459 65.4931 28.1639 64.6295 28.3083Z" fill="white"/>
<path d="M13.3705 28.3083C14.3835 28.3055 15.5089 28.2437 16.7465 28.1228C17.9464 27.9727 19.4462 27.7484 21.2458 27.4499L23.6493 36.2042L15.4326 36.227L16.3478 39.4823L24.5646 39.4595L29.1984 56L37.3026 55.9775L29.0648 26.5917C31.6541 26.6726 33.5336 27.4452 34.7034 28.9094C35.8356 30.3738 36.4087 32.6321 36.4225 35.6845C36.425 36.2421 36.3897 36.7265 36.3166 37.1376C36.2059 37.5488 36.0388 37.9455 35.8154 38.3276C35.7409 38.4452 35.7038 38.5334 35.7041 38.5921C35.6667 38.6215 35.6481 38.6509 35.6482 38.6803C37.7493 38.6745 39.2861 38.3327 40.2585 37.6549C41.1933 36.9479 41.6573 35.8607 41.6507 34.3932C41.6348 30.9006 39.9526 28.1317 36.6041 26.0865C33.2178 24.0121 28.4856 22.9833 22.4075 23.0002C22.0698 23.0011 21.6572 23.017 21.1695 23.0477C20.6819 23.0784 19.8755 23.1393 18.7503 23.2305C17.2501 23.3521 16.1061 23.4433 15.3185 23.5042C14.4932 23.5358 13.7429 23.5526 13.0675 23.5545C12.0545 23.5573 11.1351 23.5158 10.3092 23.43C9.48342 23.3443 8.71367 23.2144 8 23.0402C8.03779 23.0988 8.20869 23.5533 8.51271 24.4036C8.81673 25.2539 9.17623 25.9279 9.59121 26.4257C10.0062 26.9235 10.5333 27.333 11.1726 27.654C11.7743 27.9459 12.5069 28.1639 13.3705 28.3083Z" fill="white"/>
<defs>
<linearGradient id="paint0_linear_37_24" x1="20.5" y1="78" x2="61.5" y2="-9" gradientUnits="userSpaceOnUse">
<stop stop-color="#EAD0FF"/>
<stop offset="0.397119" stop-color="#9EA8FF"/>
<stop offset="1" stop-color="#45BCFF"/>
</linearGradient>
</defs>
</svg>
